<svg width="27" height="30" fill="none" xmlns="http://www.w3.org/2000/svg"><path d="M7.507 12.476H4.271a.54.54 0 00-.536.546v3.292c0 .302.24.546.536.546h3.236a.54.54 0 00.536-.546v-3.292a.541.541 0 00-.536-.546zm-.536 3.292H4.808v-2.2H6.97v2.2zm8.083-3.292h-3.236a.54.54 0 00-.537.546v3.292c0 .302.24.546.537.546h3.236a.54.54 0 00.537-.546v-3.292a.541.541 0 00-.537-.546zm-.536 3.292h-2.164v-2.2h2.164v2.2zm-7.011 4.21H4.271a.541.541 0 00-.536.546v3.294c0 .302.24.546.536.546h3.236a.54.54 0 00.536-.546v-3.294a.541.541 0 00-.536-.546zm-.536 3.294H4.808V21.07H6.97v2.202zm8.083-3.294h-3.236a.541.541 0 00-.537.546v3.294c0 .302.24.546.537.546h3.236a.54.54 0 00.537-.546v-3.294a.541.541 0 00-.537-.546zm-.536 3.294h-2.164V21.07h2.164v2.202zm7.849-3.294h-3.235a.541.541 0 00-.536.546v3.294c0 .302.24.546.536.546h3.235a.54.54 0 00.536-.546v-3.294a.541.541 0 00-.536-.546zm-.537 3.294h-2.16V21.07h2.161v2.202z" fill="#fff"/><path d="M26.305 2.673h-3.257V2.04c0-1.125-.899-2.04-2.003-2.04s-2.003.915-2.003 2.04v.633H15.42V2.04c0-1.125-.9-2.04-2.003-2.04-1.105 0-2.005.915-2.005 2.04v.633h-3.62V2.04C7.791.915 6.892 0 5.788 0 4.683 0 3.784.915 3.784 2.04v.633H.536A.54.54 0 000 3.219v26.235c0 .301.24.546.536.546h25.77a.541.541 0 00.536-.546V3.219a.542.542 0 00-.537-.546zm-6.19-.633a.94.94 0 01.93-.948.94.94 0 01.93.948v2.794a.94.94 0 01-.93.947.94.94 0 01-.93-.947V2.04zm-6.698-.948a.94.94 0 01.93.947v2.794a.94.94 0 01-.93.948.941.941 0 01-.932-.948V3.278c.002-.02.006-.039.006-.06 0-.02-.004-.04-.006-.06V2.04a.94.94 0 01.932-.947zm-8.56.948a.94.94 0 01.931-.948.94.94 0 01.93.948v2.794a.94.94 0 01-.93.947.94.94 0 01-.932-.947V2.04zm20.912 26.868H1.072V3.764h2.712v1.07c0 1.124.9 2.039 2.004 2.039s2.003-.915 2.003-2.04V3.764h3.62v1.07c0 1.124.9 2.039 2.005 2.039 1.104 0 2.003-.915 2.003-2.04V3.764h3.622v1.07c0 1.124.899 2.039 2.004 2.039 1.104 0 2.002-.915 2.002-2.04V3.764h2.721v25.144z" fill="#fff"/><path d="M22.96 10.898l-2.736 3.433-1.142-1.11a.53.53 0 00-.758.019.553.553 0 00.017.772l1.562 1.518a.531.531 0 00.787-.051l3.103-3.893a.553.553 0 00-.079-.768.53.53 0 00-.754.08z" fill="#fff"/></svg>