<svg width="55" height="53" fill="none" xmlns="http://www.w3.org/2000/svg"><mask id="a" fill="#fff"><path d="M54.737 26.5c0 5.905-2.035 11.64-5.782 16.292-3.746 4.652-8.988 7.953-14.89 9.376a27.988 27.988 0 01-17.678-1.522c-5.553-2.41-10.115-6.554-12.96-11.774A25.777 25.777 0 01.688 21.846c1.07-5.813 4.113-11.111 8.644-15.05C13.863 2.856 19.622.504 25.69.11c6.068-.39 12.097 1.2 17.126 4.52l-.589.84C37.391 2.277 31.594.748 25.759 1.125c-5.835.378-11.372 2.64-15.729 6.428-4.356 3.788-7.282 8.882-8.311 14.472a24.786 24.786 0 002.633 16.372c2.736 5.019 7.123 9.004 12.462 11.32a26.912 26.912 0 0016.998 1.464c5.675-1.368 10.716-4.542 14.319-9.015 3.602-4.473 5.56-9.988 5.56-15.666h1.046z"/></mask><path d="M54.737 26.5c0 5.905-2.035 11.64-5.782 16.292-3.746 4.652-8.988 7.953-14.89 9.376a27.988 27.988 0 01-17.678-1.522c-5.553-2.41-10.115-6.554-12.96-11.774A25.777 25.777 0 01.688 21.846c1.07-5.813 4.113-11.111 8.644-15.05C13.863 2.856 19.622.504 25.69.11c6.068-.39 12.097 1.2 17.126 4.52l-.589.84C37.391 2.277 31.594.748 25.759 1.125c-5.835.378-11.372 2.64-15.729 6.428-4.356 3.788-7.282 8.882-8.311 14.472a24.786 24.786 0 002.633 16.372c2.736 5.019 7.123 9.004 12.462 11.32a26.912 26.912 0 0016.998 1.464c5.675-1.368 10.716-4.542 14.319-9.015 3.602-4.473 5.56-9.988 5.56-15.666h1.046z" stroke="#fff" stroke-width="2" mask="url(#a)"/></svg>