<svg width="58" height="55" fill="none" xmlns="http://www.w3.org/2000/svg"><path d="M6.367 41.806c0 3.583 2.916 6.5 6.5 6.5s6.5-2.917 6.5-6.5c0-3.584-2.916-6.5-6.5-6.5a6.507 6.507 0 00-6.5 6.5zm10.863 0a4.369 4.369 0 01-4.363 4.363 4.369 4.369 0 01-4.364-4.363 4.369 4.369 0 014.364-4.364 4.369 4.369 0 014.363 4.364zm40.413-24.274a1.069 1.069 0 00-1.508.085l-15.517 17.38-7.987-7.988a1.068 1.068 0 10-1.51 1.51l8.787 8.787c.2.2.472.313.755.313l.03-.001a1.07 1.07 0 00.767-.356l16.27-18.223a1.068 1.068 0 00-.087-1.507z" fill="#FAD264"/><path d="M41.031 40.29c-.59 0-1.068.479-1.068 1.068v10.63H2.137V2.138h37.826v22.381a1.068 1.068 0 102.137 0V1.068C42.1.478 41.622 0 41.03 0H1.068C.478 0 0 .479 0 1.068v51.99c0 .589.478 1.068 1.068 1.068h39.963c.59 0 1.069-.48 1.069-1.069V41.358c0-.59-.478-1.068-1.069-1.068z" fill="#FAD264"/><path d="M28.544 14.404a1.068 1.068 0 100-2.137H7.082a1.068 1.068 0 100 2.137h21.462zm1.331 8.435c0-.59-.478-1.069-1.068-1.069H7.35a1.068 1.068 0 100 2.137h21.457c.59 0 1.068-.479 1.068-1.068z" fill="#FAD264"/></svg>