<svg width="50" height="50" fill="none" xmlns="http://www.w3.org/2000/svg"><circle cx="25" cy="25" r="25" fill="#fff"/><circle cx="25" cy="25" r="20" fill="#E130E3"/><path d="M25 38.956L29.59 34 31 35.522 25 42l-6-6.478L20.41 34 25 38.956z" fill="#F2F2F2"/><path fill-rule="evenodd" clip-rule="evenodd" d="M25 10.035c4.4 0 7.96 3.54 8 7.93v6c0 4.42-3.58 8-8 8s-8-3.58-8-8v-6c.04-4.39 3.6-7.93 8-7.93zm1 7.93h5a6.005 6.005 0 00-5-5.84v5.84zm-2-5.84v5.84h-5a6.005 6.005 0 015-5.84zm1 17.84c3.31 0 6-2.69 6-6v-4H19v4c0 3.31 2.69 6 6 6z" fill="#F2F2F2"/></svg>