<svg width="44" height="44" fill="none" xmlns="http://www.w3.org/2000/svg"><circle cx="22" cy="22" r="22" fill="#FAD264"/><path d="M34.455 18.707l-8.269-1.192-3.697-7.436a.544.544 0 00-.977 0l-3.697 7.436-8.27 1.192a.538.538 0 00-.302.922l5.984 5.788-1.412 8.173a.54.54 0 00.216.53.55.55 0 00.574.04L22 30.301l7.396 3.86a.55.55 0 00.573-.042.54.54 0 00.217-.529l-1.413-8.173 5.983-5.787a.538.538 0 00-.301-.923zm-6.647 6.134a.539.539 0 00-.157.479l1.275 7.373-6.672-3.481a.55.55 0 00-.507 0l-6.671 3.48 1.274-7.372a.538.538 0 00-.157-.479l-5.397-5.22 7.46-1.076a.545.545 0 00.41-.296L22 11.541l3.336 6.708c.079.16.233.27.41.296l7.46 1.075-5.399 5.221z" fill="#42196D"/></svg>