<svg width="32" height="30" fill="none" xmlns="http://www.w3.org/2000/svg"><path d="M15.3 30C6.862 30 0 23.271 0 15 0 6.73 6.863 0 15.3 0c3.354 0 6.557 1.06 9.263 3.068a1.186 1.186 0 11-1.415 1.907 13.087 13.087 0 00-7.849-2.6C8.172 2.374 2.374 8.037 2.374 15S8.172 27.626 15.3 27.626 28.226 21.962 28.226 15c0-.975-.109-1.923-.322-2.818a1.187 1.187 0 012.31-.551 14.58 14.58 0 01.386 3.37C30.6 23.27 23.736 30 15.3 30z" fill="#FAD264"/><path d="M15 22.192c-.315 0-.617-.124-.84-.347l-8.109-8.108a1.187 1.187 0 111.679-1.679l7.22 7.22L29.127 3.4a1.187 1.187 0 011.771 1.581L15.885 21.796a1.186 1.186 0 01-.851.396H15z" fill="#FAD264"/></svg>