<svg width="30" height="30" fill="none" xmlns="http://www.w3.org/2000/svg"><path d="M19.617 11.122l-5.96 6.677-3.025-3.024a.53.53 0 10-.75.749l3.421 3.42c.1.1.235.156.375.156h.015a.53.53 0 00.38-.177l6.335-7.095a.53.53 0 10-.791-.706z" fill="#42196D"/><path d="M29.732 15a.522.522 0 00.016-.126c0-1.412-1.464-2.142-2.757-2.786-.917-.457-1.865-.93-2.118-1.525-.257-.608.106-1.599.457-2.558.488-1.336.993-2.717.061-3.648-.913-.914-2.25-.604-3.542-.304-.905.21-1.841.426-2.465.163-.608-.258-1.114-1.056-1.603-1.828C17.071 1.268 16.27 0 14.874 0c-1.397 0-2.185 1.296-2.88 2.44-.482.795-.981 1.615-1.589 1.872-.621.263-1.567.025-2.482-.205-1.303-.327-2.65-.667-3.566.25-.925.926-.477 2.314-.043 3.657.31.958.63 1.949.372 2.562-.253.598-1.16 1.067-2.036 1.52-1.242.642-2.65 1.37-2.65 2.778 0 .044.007.086.017.127a.523.523 0 00-.017.125c0 1.409 1.408 2.137 2.65 2.779.877.453 1.783.921 2.036 1.52.26.613-.061 1.604-.371 2.562-.434 1.343-.883 2.73.042 3.656.917.917 2.264.578 3.567.25.915-.23 1.86-.467 2.482-.204.607.256 1.106 1.077 1.588 1.87.696 1.145 1.483 2.441 2.88 2.441 1.395 0 2.199-1.269 2.908-2.388.49-.772.995-1.57 1.602-1.828.626-.264 1.56-.047 2.465.163 1.292.3 2.629.61 3.542-.304.933-.931.427-2.313-.061-3.648-.351-.959-.714-1.95-.457-2.557.253-.596 1.201-1.07 2.118-1.526 1.293-.644 2.757-1.374 2.757-2.785a.514.514 0 00-.016-.128zm-3.213 1.962c-1.09.543-2.215 1.105-2.621 2.062-.42.992.016 2.183.437 3.333.391 1.07.761 2.082.307 2.536-.498.498-1.497.266-2.554.021-1.07-.248-2.175-.504-3.116-.106-.913.386-1.509 1.327-2.085 2.236-.618.975-1.201 1.896-2.013 1.896-.8 0-1.37-.938-1.975-1.931-.57-.938-1.158-1.907-2.08-2.297-.949-.402-2.07-.12-3.154.153-1.063.267-2.067.52-2.559.028-.467-.467-.135-1.494.216-2.581.37-1.143.752-2.324.34-3.301-.403-.95-1.482-1.509-2.525-2.049-1.068-.552-2.078-1.073-2.078-1.837a.538.538 0 00-.017-.127.523.523 0 00.017-.125c0-.764 1.009-1.285 2.077-1.837 1.044-.54 2.123-1.098 2.525-2.049.412-.977.03-2.158-.34-3.3-.35-1.088-.683-2.115-.215-2.582.49-.492 1.495-.239 2.558.028 1.085.273 2.205.555 3.154.154.922-.39 1.511-1.36 2.082-2.297.603-.994 1.173-1.932 1.974-1.932.812 0 1.395.92 2.012 1.896.577.91 1.172 1.85 2.086 2.237.941.398 2.047.141 3.116-.107 1.057-.245 2.056-.477 2.554.022.454.453.084 1.464-.308 2.535-.42 1.151-.856 2.341-.436 3.334.405.957 1.532 1.518 2.62 2.061 1.117.556 2.17 1.081 2.17 1.837 0 .044.008.086.018.127a.522.522 0 00-.017.125c0 .757-1.054 1.282-2.17 1.837z" fill="#42196D"/></svg>